PathFileType	4	(X/Y/Z)	C:\Users\WrightLab\Desktop\Jo\P5V25.trc
DataRate	CameraRate	NumFrames	NumMarkers	Units	OrigDataRate	OrigDataStartFrame	OrigNumFrames
100.00	100.00	       8	19	mm	100.00	297	       790
Frame#	Time	Headset_Front			Headset_Back			Headset_Left			Headset_Right			Left_Shoulder			Right_Shoulder			Sternum			C7			Left Elbow			Right Elbow			Left Wrist			Right Wrist			Left ASIS			Right ASIS			S2			Left Knee			Right Knee			Left Ankle			Right Ankle			
		X1	Y1	Z1	X2	Y2	Z2	X3	Y3	Z3	X4	Y4	Z4	X5	Y5	Z5	X6	Y6	Z6	X7	Y7	Z7	X8	Y8	Z8	X9	Y9	Z9	X10	Y10	Z10	X11	Y11	Z11	X12	Y12	Z12	X13	Y13	Z13	X14	Y14	Z14	X15	Y15	Z15	X16	Y16	Z16	X17	Y17	Z17	X18	Y18	Z18	X19	Y19	Z19	

297	2.960	-482.68240	1423.07007	-447.04691	-362.10342	1415.84729	-271.15482							-119.68857	1497.46448	-554.79431	-448.31662	1520.79041	-334.94537	-283.32397	1279.59668	-468.87878	-351.79288	1516.08789	-620.20038	-139.53432	1398.13977	-507.38879	-628.84900	1204.28784	-351.40137	-15.33752	1256.60107	-557.84497	-665.37891	1076.91589	-129.38950	-116.97984	915.39728	-510.56940	-416.20816	902.67548	-460.27328	-274.32602	983.05829	-756.04315	-101.99372	491.93991	-526.29871	-438.56723	506.19516	-427.95126	-206.16019	78.51691	-553.80249	-432.79779	187.69098	-700.50482	
298	2.970	-482.86801	1423.87524	-441.49643	-360.40182	1417.81824	-264.33905							-119.52667	1498.75244	-549.87354	-448.41653	1520.69226	-329.17197	-283.18259	1280.37598	-461.59656	-352.47107	1517.02844	-614.68103	-140.33900	1398.32458	-501.70554	-629.86499	1204.57507	-346.00446	-16.29867	1256.86975	-552.18811	-665.38007	1077.99219	-124.11340	-116.85815	916.23999	-504.75043	-416.36255	903.38568	-454.99994	-274.79602	983.92963	-750.19171	-99.45680	493.24921	-522.72632	-437.59171	509.11847	-417.48471	-206.46530	78.83903	-553.69604	-433.68509	181.84471	-680.83777	
299	2.980	-216.81880	1558.99829	-327.41467	-360.68234	1417.54614	-258.51721							-118.95749	1499.79919	-543.91840	-449.31549	1522.06580	-323.91098	-282.99872	1281.56580	-456.92352	-351.85986	1516.77124	-608.49481	-141.80247	1398.73059	-495.54041	-630.23071	1205.18726	-341.48608	-15.73193	1257.99280	-547.42493	-666.56879	1078.70691	-119.69474	-116.19912	917.25439	-499.06622	-417.27228	903.01300	-448.83548	-275.02518	984.95697	-744.65692	-97.74645	494.75040	-518.62402	-435.35303	511.13504	-408.51050	-206.94429	79.16018	-552.51764	-435.40448	176.05200	-661.63586	
300	2.990	-217.36560	1559.65979	-322.72128	-362.52451	1417.32104	-255.13858							-119.19321	1500.10168	-539.05499	-449.79675	1521.97009	-318.28656	-284.75723	1281.00867	-453.33264	-352.54062	1518.17212	-602.92023	-142.09923	1399.63733	-489.37918	-631.16742	1205.55664	-337.31305	-17.71591	1258.53894	-539.04553	-666.89899	1079.27771	-115.93603	-115.65025	917.74719	-493.23056	-416.03510	905.38971	-442.88901	-275.21088	985.37201	-739.89069	-96.26002	495.99472	-514.50745	-435.89740	514.76501	-399.64767	-207.37953	78.96609	-551.95929	-436.42075	169.86536	-641.88513	
301	3.000	-484.87473	1426.10535	-426.01056	-362.59158	1418.67981	-249.45468							-119.47452	1501.02039	-532.53540	-450.02258	1522.66321	-312.28265	-284.58215	1282.16504	-447.90366	-352.94537	1519.09106	-597.55334	-141.30696	1400.25867	-483.53311	-631.89905	1206.05762	-332.76990	-17.48397	1258.63159	-535.56213	-667.02582	1079.61646	-111.05222	-115.31361	918.77240	-487.54617	-417.73196	905.78284	-438.04852	-275.23065	986.39233	-734.60779	-94.82518	496.99615	-510.34161	-433.21985	516.91034	-391.55145	-206.97600	79.33781	-552.21051	-437.65170	164.11673	-622.14551	
302	3.010	-486.44659	1427.05530	-420.92346	-361.10416	1419.01880	-242.55775							-120.12215	1501.12793	-526.98212	-450.17889	1522.66223	-306.51834	-286.18695	1282.64124	-443.59201	-353.65793	1519.64856	-592.49915	-142.01895	1400.49048	-478.27667	-632.66772	1206.54602	-328.77829	-17.64383	1259.23755	-527.90698	-667.52344	1080.84436	-106.05354	-114.92329	919.07855	-482.33823	-417.63345	905.50110	-431.89777	-276.04193	987.24036	-729.39178	-96.89861	496.35580	-505.27847	-434.18817	519.48688	-384.21866	-207.38774	79.31390	-552.03717	-438.57739	157.24402	-601.88751	
303	3.020	-218.57854	1560.91565	-306.25549	-362.50336	1418.96472	-236.49825							-121.48994	1501.28284	-521.11823	-450.55984	1523.36365	-300.72458	-285.81100	1283.25500	-436.33084	-354.24002	1520.47424	-587.05707	-142.71683	1401.19275	-473.51575	-633.58691	1206.35315	-323.86829	-19.17815	1259.36353	-523.60339	-668.03741	1081.13501	-100.67376	-114.91701	920.18115	-477.54581	-418.25790	906.51349	-425.74573	-276.56619	988.10388	-724.60181	-97.69876	496.17157	-500.35129	-432.42157	521.33594	-376.82629	-207.48183	79.24902	-551.26343	-439.91962	150.76146	-581.72040	
304	3.030	-218.98077	1561.51965	-302.19150	-362.66672	1418.85486	-231.43552							-122.46783	1501.57947	-516.17334	-450.81567	1523.73022	-295.56201	-287.08090	1283.66833	-431.05496	-354.01303	1520.46240	-581.46130	-142.88062	1401.98645	-468.05188	-634.87140	1207.06934	-319.47321	-18.49463	1260.19080	-519.06421	-667.81561	1080.36401	-96.30894	-115.69212	920.03430	-472.88034	-417.73312	906.99811	-419.01547	-276.56592	987.99493	-718.92230	-98.36851	495.50928	-494.72952	-431.23804	522.21692	-370.35275	-207.52309	79.75425	-551.13385	-441.02881	143.77246	-561.39349	
